<svg width="80" height="80" viewBox="0 0 80 80" fill="none" xmlns="http://www.w3.org/2000/svg">
<rect x="0.5" y="0.5" width="79" height="79" rx="11.5" fill="url(#paint0_radial_4599_7711)" fill-opacity="0.16"/>
<rect x="0.5" y="0.5" width="79" height="79" rx="11.5" stroke="url(#paint1_linear_4599_7711)"/>
<path d="M54.368 28.75H52.507C52.5052 28.75 52.5034 28.7507 52.5021 28.7521C52.5007 28.7534 52.5 28.7552 52.5 28.757V52.5C52.5 53.163 52.7634 53.7989 53.2322 54.2678C53.7011 54.7366 54.337 55 55 55C55.663 55 56.2989 54.7366 56.7678 54.2678C57.2366 53.7989 57.5 53.163 57.5 52.5V31.882C57.5 31.0514 57.17 30.2547 56.5826 29.6674C55.9953 29.08 55.1986 28.75 54.368 28.75Z" fill="url(#paint2_linear_4599_7711)"/>
<path d="M50 52.5V25.625C50 25.2146 49.9192 24.8083 49.7621 24.4291C49.6051 24.05 49.3749 23.7055 49.0847 23.4153C48.7945 23.1251 48.45 22.8949 48.0709 22.7379C47.6917 22.5808 47.2854 22.5 46.875 22.5H25.625C24.7962 22.5 24.0013 22.8292 23.4153 23.4153C22.8292 24.0013 22.5 24.7962 22.5 25.625V53.125C22.5 54.2853 22.9609 55.3981 23.7814 56.2186C24.6019 57.0391 25.7147 57.5 26.875 57.5H53.6602C53.672 57.5001 53.6837 57.4979 53.6947 57.4934C53.7056 57.4889 53.7156 57.4823 53.7239 57.4739C53.7323 57.4656 53.7389 57.4556 53.7434 57.4447C53.7479 57.4337 53.7501 57.422 53.75 57.4102C53.75 57.3905 53.7434 57.3714 53.7314 57.3559C53.7194 57.3404 53.7026 57.3292 53.6836 57.3242C52.6262 57.0342 51.6932 56.4051 51.0278 55.5337C50.3624 54.6622 50.0013 53.5965 50 52.5ZM27.5 30C27.5 29.6685 27.6317 29.3505 27.8661 29.1161C28.1005 28.8817 28.4185 28.75 28.75 28.75H33.75C34.0815 28.75 34.3995 28.8817 34.6339 29.1161C34.8683 29.3505 35 29.6685 35 30V35C35 35.3315 34.8683 35.6495 34.6339 35.8839C34.3995 36.1183 34.0815 36.25 33.75 36.25H28.75C28.4185 36.25 28.1005 36.1183 27.8661 35.8839C27.6317 35.6495 27.5 35.3315 27.5 35V30ZM43.75 51.25H28.7852C28.1125 51.25 27.5352 50.7328 27.5016 50.0602C27.4934 49.8911 27.5197 49.7222 27.5787 49.5637C27.6378 49.4051 27.7284 49.2602 27.8452 49.1377C27.9619 49.0152 28.1023 48.9177 28.2578 48.851C28.4133 48.7844 28.5808 48.75 28.75 48.75H43.7148C44.3875 48.75 44.9648 49.2672 44.9984 49.9398C45.0066 50.1089 44.9803 50.2778 44.9213 50.4363C44.8622 50.5949 44.7716 50.7398 44.6548 50.8623C44.5381 50.9848 44.3977 51.0823 44.2422 51.149C44.0867 51.2156 43.9192 51.25 43.75 51.25ZM43.75 46.25H28.7852C28.1125 46.25 27.5352 45.7328 27.5016 45.0602C27.4934 44.8911 27.5197 44.7222 27.5787 44.5637C27.6378 44.4051 27.7284 44.2602 27.8452 44.1377C27.9619 44.0152 28.1023 43.9177 28.2578 43.851C28.4133 43.7844 28.5808 43.75 28.75 43.75H43.7148C44.3875 43.75 44.9648 44.2672 44.9984 44.9398C45.0066 45.1089 44.9803 45.2778 44.9213 45.4363C44.8622 45.5949 44.7716 45.7398 44.6548 45.8623C44.5381 45.9848 44.3977 46.0823 44.2422 46.149C44.0867 46.2156 43.9192 46.25 43.75 46.25ZM43.75 41.25H28.7852C28.1125 41.25 27.5352 40.7328 27.5016 40.0602C27.4934 39.8911 27.5197 39.7222 27.5787 39.5637C27.6378 39.4051 27.7284 39.2602 27.8452 39.1377C27.9619 39.0152 28.1023 38.9177 28.2578 38.851C28.4133 38.7844 28.5808 38.75 28.75 38.75H43.7148C44.3875 38.75 44.9648 39.2672 44.9984 39.9398C45.0066 40.1089 44.9803 40.2778 44.9213 40.4363C44.8622 40.5949 44.7716 40.7398 44.6548 40.8623C44.5381 40.9848 44.3977 41.0823 44.2422 41.149C44.0867 41.2156 43.9192 41.25 43.75 41.25ZM43.75 36.25H38.7852C38.1125 36.25 37.5352 35.7328 37.5016 35.0602C37.4934 34.8911 37.5197 34.7222 37.5787 34.5637C37.6378 34.4051 37.7284 34.2602 37.8452 34.1377C37.9619 34.0152 38.1023 33.9177 38.2578 33.851C38.4133 33.7844 38.5808 33.75 38.75 33.75H43.7148C44.3875 33.75 44.9648 34.2672 44.9984 34.9398C45.0066 35.1089 44.9803 35.2778 44.9213 35.4363C44.8622 35.5949 44.7716 35.7398 44.6548 35.8623C44.5381 35.9848 44.3977 36.0823 44.2422 36.149C44.0867 36.2156 43.9192 36.25 43.75 36.25ZM43.75 31.25H38.7852C38.1125 31.25 37.5352 30.7328 37.5016 30.0602C37.4934 29.8911 37.5197 29.7222 37.5787 29.5637C37.6378 29.4051 37.7284 29.2602 37.8452 29.1377C37.9619 29.0152 38.1023 28.9177 38.2578 28.851C38.4133 28.7844 38.5808 28.75 38.75 28.75H43.7148C44.3875 28.75 44.9648 29.2672 44.9984 29.9398C45.0066 30.1089 44.9803 30.2778 44.9213 30.4363C44.8622 30.5949 44.7716 30.7398 44.6548 30.8623C44.5381 30.9848 44.3977 31.0823 44.2422 31.149C44.0867 31.2156 43.9192 31.25 43.75 31.25Z" fill="url(#paint3_linear_4599_7711)"/>
<defs>
<radialGradient id="paint0_radial_4599_7711" cx="0" cy="0" r="1" gradientUnits="userSpaceOnUse" gradientTransform="translate(40 40) rotate(-116.202) scale(24.9129 0.698225)">
<stop stop-color="#274962"/>
<stop offset="1" stop-color="#2D485C"/>
</radialGradient>
<linearGradient id="paint1_linear_4599_7711" x1="0" y1="0" x2="80" y2="75" gradientUnits="userSpaceOnUse">
<stop stop-color="#19B1D2"/>
<stop offset="0.639201" stop-color="#0DA3E7" stop-opacity="0"/>
<stop offset="1" stop-color="#0094FF"/>
</linearGradient>
<linearGradient id="paint2_linear_4599_7711" x1="22.5" y1="40" x2="57.5" y2="40" gradientUnits="userSpaceOnUse">
<stop stop-color="#19B1D2"/>
<stop offset="1" stop-color="#0094FF"/>
</linearGradient>
<linearGradient id="paint3_linear_4599_7711" x1="22.5" y1="40" x2="57.5" y2="40" gradientUnits="userSpaceOnUse">
<stop stop-color="#19B1D2"/>
<stop offset="1" stop-color="#0094FF"/>
</linearGradient>
</defs>
</svg>
