<svg width="21" height="20" viewBox="0 0 21 20" fill="none" xmlns="http://www.w3.org/2000/svg">
<path fill-rule="evenodd" clip-rule="evenodd" d="M7.18612 2.04755C6.64589 0.426857 4.35346 0.426858 3.81323 2.04755C3.61419 2.64466 3.14564 3.11322 2.54853 3.31225C0.927834 3.85248 0.927834 6.14491 2.54853 6.68514C3.14564 6.88418 3.61419 7.35273 3.81323 7.94984C4.35346 9.57054 6.64589 9.57054 7.18612 7.94984C7.38516 7.35273 7.85371 6.88418 8.45082 6.68514C10.0715 6.14491 10.0715 3.85248 8.45082 3.31225C7.85371 3.11322 7.38516 2.64466 7.18612 2.04755ZM5.39437 2.5746C5.40779 2.53433 5.42344 2.52241 5.43156 2.51692C5.44483 2.50794 5.46835 2.4987 5.49967 2.4987C5.531 2.4987 5.55452 2.50794 5.56779 2.51692C5.57591 2.52241 5.59156 2.53433 5.60498 2.5746C5.96991 3.66938 6.82899 4.52846 7.92377 4.89339C7.96404 4.90682 7.97596 4.92246 7.98145 4.93058C7.99043 4.94385 7.99967 4.96737 7.99967 4.9987C7.99967 5.03002 7.99043 5.05354 7.98145 5.06681C7.97596 5.07493 7.96404 5.09058 7.92377 5.104C6.82899 5.46893 5.96991 6.32801 5.60498 7.4228C5.59156 7.46307 5.57591 7.47498 5.56779 7.48048C5.55452 7.48946 5.531 7.4987 5.49967 7.4987C5.46835 7.4987 5.44483 7.48946 5.43156 7.48048C5.42344 7.47498 5.40779 7.46307 5.39437 7.4228C5.02944 6.32801 4.17036 5.46893 3.07557 5.104C3.03531 5.09058 3.02339 5.07493 3.0179 5.06681C3.00891 5.05354 2.99967 5.03002 2.99967 4.9987C2.99967 4.96737 3.00891 4.94385 3.0179 4.93058C3.02339 4.92246 3.03531 4.90682 3.07557 4.89339C4.17036 4.52846 5.02944 3.66938 5.39437 2.5746Z" fill="url(#paint0_linear_4631_7866)"/>
<path fill-rule="evenodd" clip-rule="evenodd" d="M15.358 7.53183C14.6026 5.26543 11.3968 5.26543 10.6413 7.53183C10.2308 8.76341 9.26438 9.72982 8.03281 10.1403C5.76641 10.8958 5.76641 14.1016 8.03281 14.857C9.26438 15.2676 10.2308 16.234 10.6413 17.4656C11.3968 19.732 14.6026 19.732 15.358 17.4656C15.7685 16.234 16.735 15.2676 17.9665 14.857C20.2329 14.1016 20.2329 10.8958 17.9665 10.1403C16.735 9.72982 15.7685 8.76341 15.358 7.53183ZM12.2225 8.05888C12.4714 7.31197 13.5279 7.31197 13.7769 8.05888C14.3533 9.78813 15.7102 11.1451 17.4395 11.7215C18.1864 11.9705 18.1864 13.0269 17.4395 13.2759C15.7102 13.8523 14.3533 15.2093 13.7769 16.9385C13.5279 17.6854 12.4714 17.6854 12.2225 16.9385C11.646 15.2093 10.2891 13.8523 8.55986 13.2759C7.81295 13.0269 7.81295 11.9705 8.55986 11.7215C10.2891 11.1451 11.646 9.78813 12.2225 8.05888Z" fill="url(#paint1_linear_4631_7866)"/>
<defs>
<linearGradient id="paint0_linear_4631_7866" x1="1.33301" y1="9.9987" x2="19.6663" y2="9.9987" gradientUnits="userSpaceOnUse">
<stop stop-color="#19B1D2"/>
<stop offset="1" stop-color="#0094FF"/>
</linearGradient>
<linearGradient id="paint1_linear_4631_7866" x1="1.33301" y1="9.9987" x2="19.6663" y2="9.9987" gradientUnits="userSpaceOnUse">
<stop stop-color="#19B1D2"/>
<stop offset="1" stop-color="#0094FF"/>
</linearGradient>
</defs>
</svg>
