<svg width="32" height="32" viewBox="0 0 32 32" fill="none" xmlns="http://www.w3.org/2000/svg">
<path d="M19.4307 4H12.5694C12.34 4 12.156 4.18667 12.1507 4.42133C12.0134 10.9693 8.64002 17.1867 2.83736 21.5893C2.74855 21.6567 2.68934 21.7559 2.67219 21.8661C2.65503 21.9763 2.68126 22.0888 2.74536 22.18L6.76002 27.8227C6.7922 27.8682 6.83317 27.9068 6.88051 27.9362C6.92785 27.9656 6.98061 27.9853 7.03566 27.994C7.09072 28.0027 7.14696 28.0003 7.20107 27.9869C7.25517 27.9735 7.30605 27.9494 7.35069 27.916C10.9787 25.1827 13.8974 21.8827 16 18.2253C18.1014 21.8827 21.02 25.1827 24.6494 27.9173C24.836 28.0587 25.1027 28.0147 25.24 27.8227L29.2534 22.18C29.3176 22.0889 29.344 21.9765 29.3271 21.8664C29.3102 21.7562 29.2513 21.6569 29.1627 21.5893C23.36 17.1867 19.988 10.9693 19.8494 4.42133C19.849 4.31016 19.8049 4.20359 19.7265 4.12473C19.6481 4.04586 19.5419 4.00105 19.4307 4Z" fill="#FF875B"/>
</svg>
