<svg width="32" height="32" viewBox="0 0 32 32" fill="none" xmlns="http://www.w3.org/2000/svg">
<path d="M16.5967 23.9687C16.6633 23.4267 16.3867 21.6113 18.204 20.034C19.4727 18.9333 20.3393 18.5273 21.462 18.5273C22.7327 18.5273 23.408 18.7747 23.7273 19.31C24.062 19.8713 23.3273 20.766 22.8267 21.3867C21.4627 23.078 19.774 23.8453 18.8347 24.184V27.388C18.8347 27.91 19.258 28.3333 19.78 28.3333H23.11C24.1214 28.3333 25.0913 27.9316 25.8064 27.2164C26.5216 26.5013 26.9233 25.5314 26.9233 24.52V17.7993C26.9233 17.1547 26.5193 16.5793 25.9133 16.3607L16 12.7853L6.08666 16.3607C5.79058 16.4672 5.53463 16.6625 5.35383 16.9201C5.17304 17.1776 5.07623 17.4847 5.07666 17.7993V24.5193C5.07657 25.0202 5.17514 25.5161 5.36674 25.9788C5.55834 26.4416 5.83922 26.862 6.19333 27.2162C6.54743 27.5704 6.96784 27.8513 7.43054 28.043C7.89324 28.2347 8.38916 28.3333 8.89 28.3333H12.22C12.7427 28.3333 13.166 27.91 13.166 27.388V24.184C12.226 23.8453 10.538 23.0773 9.17333 21.3867C8.67333 20.766 7.93799 19.8713 8.27333 19.31C8.59199 18.7747 9.26799 18.5273 10.5387 18.5273C11.6607 18.5273 12.528 18.934 13.796 20.034C15.6133 21.6113 15.3373 23.4267 15.4033 23.9687H16.5967Z" stroke="url(#paint0_linear_570_1710)" stroke-width="2" stroke-linecap="round" stroke-linejoin="round"/>
<path d="M25.0494 16.0487C24.9927 11.9114 21.7967 8.97202 16 8.97202C10.2034 8.97202 7.00802 11.9114 6.95068 16.0487M16.728 8.97202C16.728 7.21202 17.0434 6.05669 19.4067 5.71535C19.4067 5.71535 18.724 3.66669 16 3.66669C13.276 3.66669 12.5934 5.71535 12.5934 5.71535C14.9567 6.05669 15.272 7.21202 15.272 8.97202" stroke="url(#paint1_linear_570_1710)" stroke-width="2" stroke-linecap="round" stroke-linejoin="round"/>
<defs>
<linearGradient id="paint0_linear_570_1710" x1="5.07666" y1="20.5593" x2="26.9233" y2="20.5593" gradientUnits="userSpaceOnUse">
<stop stop-color="#0094FF"/>
<stop offset="1" stop-color="#A02294"/>
</linearGradient>
<linearGradient id="paint1_linear_570_1710" x1="6.95068" y1="9.85769" x2="25.0494" y2="9.85769" gradientUnits="userSpaceOnUse">
<stop stop-color="#0094FF"/>
<stop offset="1" stop-color="#A02294"/>
</linearGradient>
</defs>
</svg>
