<svg width="195" height="36" viewBox="0 0 195 36" fill="none" xmlns="http://www.w3.org/2000/svg">
<path d="M0 18.3308C0 16.0679 0.378234 13.9474 1.1347 11.9696C1.906 9.99168 2.99621 8.26327 4.40532 6.78432C5.82926 5.30537 7.54244 4.13824 9.54486 3.28295C11.5621 2.42765 13.8241 2 16.3308 2C18.8376 2 21.0921 2.42765 23.0945 3.28295C25.1118 4.13824 26.825 5.30537 28.2341 6.78432C29.658 8.26327 30.7482 9.99168 31.5047 11.9696C32.276 13.9474 32.6617 16.0679 32.6617 18.3308C32.6617 20.5938 32.276 22.7142 31.5047 24.6921C30.7482 26.67 29.658 28.3984 28.2341 29.8773C26.825 31.3563 25.1118 32.5234 23.0945 33.3787C21.0921 34.234 18.8376 34.6617 16.3308 34.6617C13.8241 34.6617 11.5621 34.234 9.54486 33.3787C7.54244 32.5234 5.82926 31.3563 4.40532 29.8773C2.99621 28.3984 1.906 26.67 1.1347 24.6921C0.378234 22.7142 0 20.5938 0 18.3308ZM6.91946 18.3308C6.91946 19.596 7.12712 20.7987 7.54244 21.9391C7.97259 23.0617 8.58815 24.0595 9.38911 24.9327C10.2049 25.7879 11.1913 26.474 12.3482 26.9907C13.52 27.4896 14.8476 27.7391 16.3308 27.7391C17.8141 27.7391 19.1342 27.4896 20.2912 26.9907C21.4629 26.474 22.4493 25.7879 23.2503 24.9327C24.0661 24.0595 24.6816 23.0617 25.097 21.9391C25.5271 20.7987 25.7422 19.596 25.7422 18.3308C25.7422 17.0657 25.5271 15.8629 25.097 14.7225C24.6816 13.5821 24.0661 12.5843 23.2503 11.729C22.4493 10.8559 21.4629 10.1699 20.2912 9.67095C19.1342 9.1542 17.8141 8.89583 16.3308 8.89583C14.8476 8.89583 13.52 9.1542 12.3482 9.67095C11.1913 10.1699 10.2049 10.8559 9.38911 11.729C8.58815 12.5843 7.97259 13.5821 7.54244 14.7225C7.12712 15.8629 6.91946 17.0657 6.91946 18.3308Z" fill="#0495F8"/>
<path d="M10.3359 18.4866C10.3359 17.6091 10.4826 16.7869 10.7759 16.02C11.075 15.2531 11.4977 14.5829 12.0441 14.0094C12.5962 13.436 13.2605 12.9834 14.037 12.6518C14.8191 12.3201 15.6962 12.1543 16.6682 12.1543C17.6402 12.1543 18.5144 12.3201 19.2908 12.6518C20.073 12.9834 20.7373 13.436 21.2837 14.0094C21.8358 14.5829 22.2586 15.2531 22.5519 16.02C22.8509 16.7869 23.0005 17.6091 23.0005 18.4866C23.0005 19.364 22.8509 20.1862 22.5519 20.9532C22.2586 21.7201 21.8358 22.3903 21.2837 22.9637C20.7373 23.5372 20.073 23.9897 19.2908 24.3214C18.5144 24.653 17.6402 24.8188 16.6682 24.8188C15.6962 24.8188 14.8191 24.653 14.037 24.3214C13.2605 23.9897 12.5962 23.5372 12.0441 22.9637C11.4977 22.3903 11.075 21.7201 10.7759 20.9532C10.4826 20.1862 10.3359 19.364 10.3359 18.4866ZM13.019 18.4866C13.019 18.9771 13.0995 19.4435 13.2605 19.8857C13.4273 20.321 13.666 20.7079 13.9766 21.0464C14.2929 21.3781 14.6754 21.6441 15.124 21.8444C15.5783 22.0379 16.0931 22.1346 16.6682 22.1346C17.2433 22.1346 17.7552 22.0379 18.2038 21.8444C18.6582 21.6441 19.0407 21.3781 19.3512 21.0464C19.6676 20.7079 19.9062 20.321 20.0673 19.8857C20.2341 19.4435 20.3175 18.9771 20.3175 18.4866C20.3175 17.996 20.2341 17.5296 20.0673 17.0875C19.9062 16.6453 19.6676 16.2584 19.3512 15.9267C19.0407 15.5882 18.6582 15.3222 18.2038 15.1287C17.7552 14.9283 17.2433 14.8282 16.6682 14.8282C16.0931 14.8282 15.5783 14.9283 15.124 15.1287C14.6754 15.3222 14.2929 15.5882 13.9766 15.9267C13.666 16.2584 13.4273 16.6453 13.2605 17.0875C13.0995 17.5296 13.019 17.996 13.019 18.4866Z" fill="#0495F8"/>
<path d="M46.2053 26.24C43.6613 26.24 41.7333 25.544 40.4213 24.152C39.1253 22.76 38.4773 20.88 38.4773 18.512C38.4773 16.816 38.7493 15.36 39.2933 14.144C39.8533 12.912 40.7013 11.968 41.8373 11.312C42.9733 10.64 44.4213 10.304 46.1813 10.304C47.0773 10.304 47.8933 10.376 48.6293 10.52C49.3813 10.648 50.0773 10.824 50.7173 11.048V13.328C50.0773 13.072 49.3893 12.88 48.6533 12.752C47.9333 12.608 47.1733 12.536 46.3733 12.536C44.4533 12.536 43.0933 13.048 42.2933 14.072C41.5093 15.096 41.1173 16.576 41.1173 18.512C41.1173 20.32 41.5493 21.696 42.4133 22.64C43.2773 23.568 44.6133 24.032 46.4213 24.032C47.1573 24.032 47.8933 23.976 48.6293 23.864C49.3813 23.736 50.0853 23.544 50.7413 23.288V25.592C50.1013 25.8 49.4053 25.96 48.6533 26.072C47.9173 26.184 47.1013 26.24 46.2053 26.24ZM57.3816 26.24C56.0216 26.24 54.9736 25.864 54.2376 25.112C53.5176 24.36 53.1576 23.256 53.1576 21.8V14.624H55.7736V21.8C55.7736 22.648 55.9816 23.272 56.3976 23.672C56.8136 24.072 57.4536 24.272 58.3176 24.272C58.9576 24.272 59.5496 24.152 60.0936 23.912C60.6376 23.672 61.1096 23.352 61.5096 22.952V14.624H64.1016V26H61.7256L61.6056 24.824C61.0936 25.224 60.4856 25.56 59.7816 25.832C59.0776 26.104 58.2776 26.24 57.3816 26.24ZM70.9446 26.24C70.1606 26.24 69.4086 26.184 68.6886 26.072C67.9846 25.96 67.4006 25.824 66.9366 25.664V23.456C67.4806 23.664 68.0806 23.824 68.7366 23.936C69.3926 24.048 70.0166 24.104 70.6086 24.104C71.5046 24.104 72.1446 24.024 72.5286 23.864C72.9126 23.704 73.1046 23.392 73.1046 22.928C73.1046 22.592 72.9846 22.328 72.7446 22.136C72.5206 21.944 72.1766 21.768 71.7126 21.608C71.2646 21.448 70.6886 21.256 69.9846 21.032C69.3126 20.808 68.7286 20.568 68.2326 20.312C67.7366 20.04 67.3526 19.696 67.0806 19.28C66.8086 18.864 66.6726 18.32 66.6726 17.648C66.6726 16.608 67.0486 15.808 67.8006 15.248C68.5526 14.672 69.7606 14.384 71.4246 14.384C72.0806 14.384 72.7046 14.432 73.2966 14.528C73.8886 14.624 74.3926 14.744 74.8086 14.888V17.072C74.3606 16.896 73.8646 16.76 73.3206 16.664C72.7926 16.568 72.2966 16.52 71.8326 16.52C71.0006 16.52 70.3686 16.592 69.9366 16.736C69.5206 16.88 69.3126 17.168 69.3126 17.6C69.3126 18.048 69.5286 18.368 69.9606 18.56C70.4086 18.736 71.1206 18.984 72.0966 19.304C72.9926 19.576 73.7046 19.864 74.2326 20.168C74.7606 20.472 75.1366 20.84 75.3606 21.272C75.6006 21.688 75.7206 22.232 75.7206 22.904C75.7206 24.024 75.3126 24.864 74.4966 25.424C73.6806 25.968 72.4966 26.24 70.9446 26.24ZM82.2779 26.24C81.0619 26.24 80.1499 25.92 79.5419 25.28C78.9499 24.624 78.6539 23.736 78.6539 22.616V16.664H76.9739V14.624H78.6539V12.008L81.2459 11.216V14.624H84.2699L84.1019 16.664H81.2459V22.472C81.2459 23.128 81.3979 23.592 81.7019 23.864C82.0059 24.12 82.5019 24.248 83.1899 24.248C83.6219 24.248 84.0779 24.168 84.5579 24.008V25.856C83.9339 26.112 83.1739 26.24 82.2779 26.24ZM92.0069 26.24C89.9589 26.24 88.4549 25.728 87.4949 24.704C86.5509 23.68 86.0789 22.216 86.0789 20.312C86.0789 18.408 86.5589 16.944 87.5189 15.92C88.4789 14.896 89.9749 14.384 92.0069 14.384C94.0549 14.384 95.5589 14.896 96.5189 15.92C97.4789 16.944 97.9589 18.408 97.9589 20.312C97.9589 22.216 97.4789 23.68 96.5189 24.704C95.5749 25.728 94.0709 26.24 92.0069 26.24ZM92.0069 24.032C93.2069 24.032 94.0549 23.744 94.5509 23.168C95.0629 22.576 95.3189 21.624 95.3189 20.312C95.3189 19 95.0629 18.056 94.5509 17.48C94.0549 16.904 93.2069 16.616 92.0069 16.616C90.8229 16.616 89.9749 16.904 89.4629 17.48C88.9669 18.056 88.7189 19 88.7189 20.312C88.7189 21.624 88.9669 22.576 89.4629 23.168C89.9749 23.744 90.8229 24.032 92.0069 24.032ZM104.179 26.24C103.395 26.24 102.643 26.184 101.923 26.072C101.219 25.96 100.635 25.824 100.171 25.664V23.456C100.715 23.664 101.315 23.824 101.971 23.936C102.627 24.048 103.251 24.104 103.843 24.104C104.739 24.104 105.379 24.024 105.763 23.864C106.147 23.704 106.339 23.392 106.339 22.928C106.339 22.592 106.219 22.328 105.979 22.136C105.755 21.944 105.411 21.768 104.947 21.608C104.499 21.448 103.923 21.256 103.219 21.032C102.547 20.808 101.963 20.568 101.467 20.312C100.971 20.04 100.587 19.696 100.315 19.28C100.043 18.864 99.907 18.32 99.907 17.648C99.907 16.608 100.283 15.808 101.035 15.248C101.787 14.672 102.995 14.384 104.659 14.384C105.315 14.384 105.939 14.432 106.531 14.528C107.123 14.624 107.627 14.744 108.043 14.888V17.072C107.595 16.896 107.099 16.76 106.555 16.664C106.027 16.568 105.531 16.52 105.067 16.52C104.235 16.52 103.603 16.592 103.171 16.736C102.755 16.88 102.547 17.168 102.547 17.6C102.547 18.048 102.763 18.368 103.195 18.56C103.643 18.736 104.355 18.984 105.331 19.304C106.227 19.576 106.939 19.864 107.467 20.168C107.995 20.472 108.371 20.84 108.595 21.272C108.835 21.688 108.955 22.232 108.955 22.904C108.955 24.024 108.547 24.864 107.731 25.424C106.915 25.968 105.731 26.24 104.179 26.24ZM117.051 26V10.544H123.315C125.603 10.544 127.299 11.152 128.403 12.368C129.507 13.568 130.059 15.568 130.059 18.368C130.059 21.008 129.515 22.944 128.427 24.176C127.339 25.392 125.635 26 123.315 26H117.051ZM119.667 23.984H122.907C123.915 23.984 124.755 23.84 125.427 23.552C126.099 23.248 126.603 22.688 126.939 21.872C127.275 21.056 127.443 19.888 127.443 18.368C127.443 16.848 127.291 15.672 126.987 14.84C126.683 14.008 126.195 13.424 125.523 13.088C124.867 12.752 123.995 12.584 122.907 12.584H119.667V23.984ZM132.988 12.248V10.088H135.844V12.248H132.988ZM133.204 26V16.616H131.476L131.716 14.624H135.82V26H133.204ZM138.871 26V14.624H141.271L141.415 15.944C141.959 15.592 142.607 15.272 143.359 14.984C144.111 14.696 144.855 14.496 145.591 14.384V16.376C145.143 16.456 144.655 16.576 144.127 16.736C143.615 16.88 143.127 17.048 142.663 17.24C142.199 17.416 141.807 17.6 141.487 17.792V26H138.871ZM152.788 26.24C150.804 26.24 149.268 25.752 148.18 24.776C147.092 23.8 146.548 22.304 146.548 20.288C146.548 18.464 147.012 17.024 147.94 15.968C148.868 14.912 150.276 14.384 152.164 14.384C153.892 14.384 155.188 14.84 156.052 15.752C156.932 16.648 157.372 17.808 157.372 19.232V21.344H149.044C149.172 22.448 149.572 23.208 150.244 23.624C150.916 24.04 151.94 24.248 153.316 24.248C153.892 24.248 154.484 24.192 155.092 24.08C155.7 23.968 156.228 23.824 156.676 23.648V25.568C156.164 25.792 155.572 25.96 154.9 26.072C154.244 26.184 153.54 26.24 152.788 26.24ZM149.044 19.64H155.068V18.848C155.068 18.064 154.852 17.456 154.42 17.024C153.988 16.576 153.26 16.352 152.236 16.352C151.02 16.352 150.18 16.616 149.716 17.144C149.268 17.672 149.044 18.504 149.044 19.64ZM164.262 26.24C163.046 26.24 162.134 25.92 161.526 25.28C160.934 24.624 160.638 23.736 160.638 22.616V16.664H158.958V14.624H160.638V12.008L163.23 11.216V14.624H166.254L166.086 16.664H163.23V22.472C163.23 23.128 163.382 23.592 163.686 23.864C163.99 24.12 164.486 24.248 165.174 24.248C165.606 24.248 166.062 24.168 166.542 24.008V25.856C165.918 26.112 165.158 26.24 164.262 26.24ZM168.543 26V14.624H170.943L171.087 15.944C171.631 15.592 172.279 15.272 173.031 14.984C173.783 14.696 174.527 14.496 175.263 14.384V16.376C174.815 16.456 174.327 16.576 173.799 16.736C173.287 16.88 172.799 17.048 172.335 17.24C171.871 17.416 171.479 17.6 171.159 17.792V26H168.543ZM178.128 12.248V10.088H180.984V12.248H178.128ZM178.344 26V16.616H176.616L176.856 14.624H180.96V26H178.344ZM183.532 26V24.632L189.748 16.76H183.82V14.624H192.964V16.232L186.868 23.984H193.132V26H183.532Z" fill="#0495F8"/>
</svg>
