<svg width="36" height="32" viewBox="0 0 36 32" fill="none" xmlns="http://www.w3.org/2000/svg">
<g clip-path="url(#clip0_2467_4161)">
<path d="M34.2755 0L19.6292 10.8372L22.3528 4.45053L34.2755 0Z" fill="#E17726"/>
<path d="M1.75879 0.0128174L13.6496 4.45135L16.2357 10.9218L1.75879 0.0128174ZM28.3813 23.0478L34.8548 23.171L32.5924 30.8566L24.6933 28.6818L28.3813 23.0478ZM7.61852 23.0478L11.2928 28.6818L3.40705 30.8567L1.15839 23.171L7.61852 23.0478Z" fill="#E27625"/>
<path d="M15.8841 9.27356L16.1487 17.818L8.23254 17.4578L10.4843 14.0608L10.5128 14.0281L15.8841 9.27356ZM20.0339 9.17822L25.4872 14.0284L25.5155 14.0609L27.7672 17.458L19.8528 17.818L20.0339 9.17822ZM11.5247 23.0725L15.8471 26.4404L10.826 28.8645L11.5247 23.0725ZM24.4761 23.072L25.1603 28.8646L20.1532 26.4401L24.4761 23.072Z" fill="#E27625"/>
<path d="M20.2637 26.1229L25.3447 28.5832L20.6184 30.8293L20.6675 29.3448L20.2637 26.1229ZM15.7348 26.124L15.3469 29.3205L15.3788 30.8276L10.6415 28.5832L15.7348 26.124Z" fill="#D5BFB2"/>
<path d="M14.2676 18.9332L15.5954 21.7236L11.075 20.3994L14.2676 18.9332ZM21.7323 18.9335L24.94 20.3994L20.4048 21.7232L21.7323 18.9335Z" fill="#233447"/>
<path d="M11.8702 23.044L11.1395 29.0494L7.22308 23.1754L11.8702 23.044ZM24.1301 23.0442L28.7773 23.1754L24.8463 29.0496L24.1301 23.0442ZM27.8816 17.1183L24.4996 20.5651L21.892 19.3735L20.6436 21.998L19.8252 17.4848L27.8816 17.1183ZM8.11668 17.1183L16.1747 17.4848L15.3561 21.998L14.1075 19.3739L11.5137 20.5652L8.11668 17.1183Z" fill="#CC6228"/>
<path d="M7.88879 16.411L11.7152 20.2938L11.8477 24.127L7.88879 16.411ZM28.1151 16.4041L24.1489 24.1338L24.2983 20.2938L28.1151 16.4041ZM15.9876 16.6475L16.1416 17.6169L16.5221 20.0317L16.2775 27.4483L15.1208 21.4903L15.1204 21.4287L15.9876 16.6475ZM20.0104 16.6341L20.8799 21.4287L20.8795 21.4903L19.7199 27.4633L19.674 25.9693L19.4931 19.9877L20.0104 16.6341Z" fill="#E27525"/>
<path d="M24.6384 20.1395L24.5089 23.4699L20.4724 26.6149L19.6564 26.0383L20.5711 21.327L24.6384 20.1395ZM11.3756 20.1395L15.4288 21.327L16.3435 26.0383L15.5275 26.6149L11.4908 23.4697L11.3756 20.1395Z" fill="#F5841F"/>
<path d="M9.86908 27.8478L15.0333 30.2947L15.0115 29.2498L15.4436 28.8704H20.5548L21.0025 29.2484L20.9695 30.2926L26.1011 27.8539L23.604 29.9174L20.5847 31.9911H15.4021L12.3848 29.9088L9.86908 27.8478Z" fill="#C0AC9D"/>
<path d="M19.8939 25.7972L20.624 26.3131L21.0519 29.727L20.4327 29.2042H15.5692L14.9617 29.7375L15.3756 26.3134L16.106 25.7972H19.8939Z" fill="#161616"/>
<path d="M33.3086 0.299988L35.0667 5.57425L33.9687 10.9072L34.7505 11.5103L33.6926 12.3175L34.4878 12.9316L33.4348 13.8904L34.0812 14.3585L32.3658 16.362L25.3298 14.3133L25.2688 14.2807L20.1986 10.0036L33.3086 0.299988ZM2.69148 0.299988L15.8016 10.0036L10.7312 14.2807L10.6703 14.3133L3.63428 16.362L1.91882 14.3585L2.56468 13.8908L1.51242 12.9316L2.30602 12.3181L1.23215 11.5087L2.04348 10.9052L0.93335 5.57452L2.69148 0.299988Z" fill="#763E1A"/>
<path d="M24.9856 13.8653L32.4407 16.0359L34.8627 23.5007H28.4728L24.0702 23.5561L27.272 17.3151L24.9856 13.8653ZM11.0144 13.8653L8.72762 17.3151L11.9299 23.5561L7.52922 23.5007H1.15082L3.55922 16.036L11.0144 13.8653ZM22.7179 4.41492L20.6327 10.0468L20.1902 17.6548L20.0208 20.0395L20.0074 26.1312H15.9926L15.9795 20.0509L15.8096 17.6528L15.367 10.0468L13.282 4.41492H22.7179Z" fill="#F5841F"/>
</g>
<defs>
<clipPath id="clip0_2467_4161">
<rect width="34.1333" height="32" fill="white" transform="translate(0.93335)"/>
</clipPath>
</defs>
</svg>
