<svg width="80" height="80" viewBox="0 0 80 80" fill="none" xmlns="http://www.w3.org/2000/svg">
<rect x="0.5" y="0.5" width="79" height="79" rx="11.5" fill="url(#paint0_radial_3215_12261)" fill-opacity="0.06"/>
<rect x="0.5" y="0.5" width="79" height="79" rx="11.5" stroke="url(#paint1_linear_3215_12261)"/>
<path fill-rule="evenodd" clip-rule="evenodd" d="M54.3264 24.8502C52.0821 22.6059 48.4434 22.6059 46.199 24.8502L31.9899 39.0593C30.97 40.0793 30.3083 41.4026 30.1043 42.8306L29.6926 45.7129C29.3783 47.9127 31.2639 49.7984 33.4638 49.4841L36.3461 49.0723C37.7741 48.8683 39.0973 48.2067 40.1173 47.1867L54.3264 32.9776C56.5707 30.7333 56.5707 27.0945 54.3264 24.8502ZM48.9052 26.9178C49.8447 26.2773 51.136 26.3738 51.9694 27.2073C52.8028 28.0407 52.8993 29.332 52.2589 30.2715L48.9052 26.9178ZM46.5184 29.245L49.9317 32.6583L37.7603 44.8297C37.2503 45.3397 36.5887 45.6705 35.8747 45.7725L32.9924 46.1843L33.4042 43.302C33.5061 42.588 33.837 41.9263 34.347 41.4164L46.5184 29.245Z" fill="url(#paint2_linear_3215_12261)"/>
<path d="M29.9997 23.3336C26.3178 23.3336 23.333 26.3184 23.333 30.0002V50.0002C23.333 53.6821 26.3178 56.6669 29.9997 56.6669H49.9997C53.6816 56.6669 56.6663 53.6821 56.6663 50.0002V40.0002C56.6663 39.0798 55.9202 38.3336 54.9997 38.3336C54.0792 38.3336 53.333 39.0798 53.333 40.0002V50.0002C53.333 51.8412 51.8406 53.3336 49.9997 53.3336H29.9997C28.1587 53.3336 26.6663 51.8412 26.6663 50.0002V30.0002C26.6663 28.1593 28.1587 26.6669 29.9997 26.6669H34.4734C35.3938 26.6669 36.14 25.9207 36.14 25.0002C36.14 24.0798 35.3938 23.3336 34.4734 23.3336H29.9997Z" fill="url(#paint3_linear_3215_12261)"/>
<defs>
<radialGradient id="paint0_radial_3215_12261" cx="0" cy="0" r="1" gradientUnits="userSpaceOnUse" gradientTransform="translate(40 40) rotate(-116.202) scale(24.9129 0.698225)">
<stop stop-color="#274962"/>
<stop offset="1" stop-color="#2D485C"/>
</radialGradient>
<linearGradient id="paint1_linear_3215_12261" x1="0" y1="0" x2="80" y2="75" gradientUnits="userSpaceOnUse">
<stop stop-color="#19B1D2"/>
<stop offset="0.639201" stop-color="#0DA3E7" stop-opacity="0"/>
<stop offset="1" stop-color="#0094FF"/>
</linearGradient>
<linearGradient id="paint2_linear_3215_12261" x1="23.333" y1="39.917" x2="56.6663" y2="39.917" gradientUnits="userSpaceOnUse">
<stop stop-color="#19B1D2"/>
<stop offset="1" stop-color="#0094FF"/>
</linearGradient>
<linearGradient id="paint3_linear_3215_12261" x1="23.333" y1="39.917" x2="56.6663" y2="39.917" gradientUnits="userSpaceOnUse">
<stop stop-color="#19B1D2"/>
<stop offset="1" stop-color="#0094FF"/>
</linearGradient>
</defs>
</svg>
