<svg width="80" height="80" viewBox="0 0 80 80" fill="none" xmlns="http://www.w3.org/2000/svg">
<rect x="0.5" y="0.5" width="79" height="79" rx="11.5" fill="url(#paint0_radial_4929_12226)" fill-opacity="0.06"/>
<rect x="0.5" y="0.5" width="79" height="79" rx="11.5" stroke="url(#paint1_linear_4929_12226)"/>
<path fill-rule="evenodd" clip-rule="evenodd" d="M25.0013 31.6667C25.0013 29.8257 26.4937 28.3333 28.3346 28.3333H46.668C47.5884 28.3333 48.3346 27.5871 48.3346 26.6667C48.3346 25.7462 47.5884 25 46.668 25H28.3346C24.6527 25 21.668 27.9848 21.668 31.6667V50C21.668 53.6819 24.6527 56.6667 28.3346 56.6667H51.668C55.3499 56.6667 58.3346 53.6819 58.3346 50V36.6667C58.3346 35.7462 57.5884 35 56.668 35C55.7475 35 55.0013 35.7462 55.0013 36.6667V44.4154L48.9077 36.7984C46.089 33.275 40.6577 33.5107 38.1549 37.265L36.2555 40.114C33.9848 38.8677 31.12 39.5637 29.6805 41.7428L25.0013 48.826V31.6667ZM46.3048 38.8807L55.0013 49.7513V50C55.0013 51.8409 53.5089 53.3333 51.668 53.3333H34.563C33.2319 53.3333 32.4379 51.8498 33.1763 50.7422L40.9284 39.114C42.1798 37.2369 44.8955 37.119 46.3048 38.8807ZM30.4028 48.8932C29.4567 50.3123 29.3491 51.9373 29.8476 53.3333H29.168C28.2475 53.3333 27.5013 52.5871 27.5013 51.6667V51.5898C27.5013 51.2632 27.5973 50.9437 27.7773 50.6712L32.4618 43.5801C32.8864 42.9373 33.6831 42.6817 34.3854 42.9193L30.4028 48.8932Z" fill="#0495F8"/>
<path d="M28.6396 34.6638C29.4414 34.9311 30.0706 35.5602 30.3379 36.362C30.6099 37.1781 31.7641 37.1781 32.0361 36.362C32.3034 35.5602 32.9326 34.9311 33.7344 34.6638C34.5504 34.3918 34.5504 33.2376 33.7344 32.9655C32.9326 32.6983 32.3034 32.0691 32.0361 31.2673C31.7641 30.4513 30.6099 30.4513 30.3379 31.2673C30.0706 32.0691 29.4414 32.6983 28.6396 32.9655C27.8236 33.2376 27.8236 34.3918 28.6396 34.6638Z" fill="#0495F8"/>
<path d="M55.0013 26.6667C55.0013 25.7462 54.2551 25 53.3346 25C52.4142 25 51.668 25.7462 51.668 26.6667V28.3333H50.0013C49.0808 28.3333 48.3346 29.0795 48.3346 30C48.3346 30.9205 49.0808 31.6667 50.0013 31.6667H51.668V33.3333C51.668 34.2538 52.4142 35 53.3346 35C54.2551 35 55.0013 34.2538 55.0013 33.3333V31.6667H56.668C57.5884 31.6667 58.3346 30.9205 58.3346 30C58.3346 29.0795 57.5884 28.3333 56.668 28.3333H55.0013V26.6667Z" fill="#0495F8"/>
<defs>
<radialGradient id="paint0_radial_4929_12226" cx="0" cy="0" r="1" gradientTransform="matrix(-11 -22.3529 -0.122301 1.33282 40 40)" gradientUnits="userSpaceOnUse">
<stop stop-color="#274962"/>
<stop offset="1" stop-color="#2D485C"/>
</radialGradient>
<linearGradient id="paint1_linear_4929_12226" x1="0" y1="0" x2="80" y2="75" gradientUnits="userSpaceOnUse">
<stop stop-color="#19B1D2"/>
<stop offset="0.639201" stop-color="#0DA3E7" stop-opacity="0"/>
<stop offset="1" stop-color="#0094FF"/>
</linearGradient>
</defs>
</svg>
