<svg width="22" height="22" viewBox="0 0 22 22" fill="none" xmlns="http://www.w3.org/2000/svg">
<path d="M13.0067 21.7812H8.99885C8.99416 21.7812 8.98947 21.7812 8.98478 21.7812C8.38478 21.7719 7.88322 21.3547 7.76135 20.7687C7.75666 20.7547 7.75666 20.7359 7.75197 20.7219L7.43791 18.4813H7.43322C7.04885 18.2938 6.67385 18.0781 6.32228 17.8297L4.2176 18.6781C4.21291 18.6781 4.20822 18.6828 4.20353 18.6828C3.63166 18.8984 2.98947 18.6781 2.67541 18.1484C2.67541 18.1437 2.67072 18.1437 2.67072 18.1391L0.664471 14.6703C0.355096 14.1406 0.476971 13.4656 0.950409 13.0719C0.955096 13.0672 0.959784 13.0625 0.964472 13.0578L2.7551 11.6516L2.75041 11.6469C2.73166 11.4125 2.72228 11.2016 2.72228 10.9953C2.72228 10.7844 2.73166 10.5734 2.75041 10.3484L0.969159 8.95156C0.959784 8.94688 0.955096 8.94219 0.950409 8.93281C0.486346 8.53906 0.369159 7.86875 0.673846 7.34375L2.6801 3.875C2.6801 3.87031 2.68478 3.87031 2.68478 3.86563C2.99885 3.34063 3.64103 3.11563 4.21291 3.33125C4.2176 3.33125 4.22228 3.33594 4.22697 3.33594L6.33166 4.18437C6.68791 3.94062 7.05822 3.725 7.4426 3.5375L7.75666 1.29219C7.75666 1.28281 7.76135 1.27344 7.76135 1.26875C7.85978 0.673438 8.37541 0.232813 8.9801 0.21875C8.98478 0.21875 8.98947 0.21875 8.99416 0.21875H13.002C13.0067 0.21875 13.0113 0.21875 13.016 0.21875C13.616 0.228125 14.1176 0.645312 14.2395 1.23125C14.2442 1.24531 14.2442 1.26406 14.2488 1.27812L14.5629 3.51875H14.5676C14.952 3.70625 15.327 3.92188 15.6785 4.17031L17.7832 3.32187C17.7879 3.32187 17.7926 3.31719 17.7973 3.31719C18.3692 3.09687 19.0113 3.32188 19.3254 3.85156C19.3254 3.85625 19.3301 3.85625 19.3301 3.86094L21.3363 7.32969C21.6457 7.85938 21.5238 8.53438 21.0504 8.92813C21.0457 8.93281 21.041 8.9375 21.0363 8.94219L19.2457 10.3484C19.2457 10.3531 19.2457 10.3578 19.2457 10.3578C19.2645 10.5969 19.2738 10.8078 19.2738 11V11.0047C19.2738 11.2156 19.2645 11.4313 19.2457 11.6422L21.0363 13.0438C21.041 13.0484 21.0457 13.0531 21.0504 13.0578C21.5238 13.4516 21.6457 14.1219 21.3363 14.6562L19.3301 18.125C19.3301 18.1297 19.3254 18.1297 19.3254 18.1344C19.0113 18.6594 18.3692 18.8844 17.7973 18.6688C17.7926 18.6688 17.7879 18.6641 17.7832 18.6641L15.6785 17.8156C15.3223 18.0594 14.952 18.275 14.5676 18.4625L14.2535 20.7078C14.2535 20.7172 14.2488 20.7266 14.2488 20.7313C14.1457 21.3266 13.6301 21.7672 13.0254 21.7812C13.016 21.7812 13.0113 21.7812 13.0067 21.7812ZM9.2051 20.2812H12.7957L13.0817 18.2516C13.152 17.7594 13.4613 17.3328 13.9113 17.1125C14.2301 16.9578 14.5348 16.7797 14.8254 16.5828C15.2379 16.2969 15.7676 16.2359 16.241 16.4234L18.1442 17.1875L19.9348 14.0891L17.9848 12.5656C17.7738 12.4016 17.666 12.1344 17.7035 11.8719C17.7457 11.5859 17.7645 11.2906 17.7692 11C17.7692 10.8453 17.7598 10.6766 17.7457 10.4797C17.6988 9.97344 17.9145 9.48125 18.3129 9.16719L19.9301 7.89688L18.1395 4.79844L16.2363 5.5625C15.7676 5.75 15.2379 5.69375 14.8207 5.40313C14.5348 5.20156 14.2301 5.02344 13.916 4.87344C13.466 4.65781 13.152 4.23125 13.077 3.73438L12.7957 1.71875H9.2051L8.91916 3.74844C8.84885 4.24063 8.53947 4.66719 8.08947 4.8875C7.77072 5.04219 7.46603 5.22031 7.17541 5.41719C6.76291 5.70312 6.23322 5.76406 5.75978 5.57656L3.86603 4.8125L2.07541 7.91094L3.68322 9.17656C4.08166 9.49063 4.2926 9.97812 4.25041 10.4844C4.23166 10.6672 4.22697 10.8359 4.22697 11C4.22697 11.1594 4.23635 11.3281 4.25041 11.5203C4.29728 12.0266 4.08635 12.5188 3.68791 12.8328L2.07072 14.1031L3.86135 17.2016L5.75978 16.4375C6.22853 16.25 6.75822 16.3062 7.17541 16.5969C7.46135 16.7984 7.76603 16.9766 8.0801 17.1266C8.5301 17.3422 8.84416 17.7687 8.91916 18.2656L9.2051 20.2812ZM11.0051 14.75C10.8832 14.75 10.7567 14.7453 10.6348 14.7313C9.63635 14.6328 8.74103 14.15 8.10353 13.3766C7.46603 12.6031 7.17072 11.6281 7.26916 10.6297C7.47072 8.57188 9.31291 7.0625 11.3707 7.26406C13.1426 7.44219 14.5535 8.85781 14.7317 10.625C14.7551 10.8687 14.7551 11.1172 14.7317 11.3656C14.5395 13.3016 12.9082 14.75 11.0051 14.75ZM10.9957 8.75C10.4754 8.75 9.97853 8.92812 9.57072 9.26094C9.10666 9.64062 8.81603 10.1797 8.75978 10.7797C8.69885 11.3797 8.87697 11.9609 9.26135 12.4297C9.64103 12.8938 10.1801 13.1844 10.7801 13.2406C12.0129 13.3625 13.1192 12.4578 13.241 11.2203C13.2551 11.075 13.2551 10.925 13.241 10.7797C13.1332 9.71562 12.2848 8.86719 11.2207 8.75937C11.1457 8.75469 11.0707 8.75 10.9957 8.75Z" fill="#EAFBFF"/>
</svg>
