<svg width="64" height="64" viewBox="0 0 64 64" fill="none" xmlns="http://www.w3.org/2000/svg">
<rect width="64" height="64" rx="32" fill="url(#paint0_radial_4803_9070)" fill-opacity="0.34"/>
<path d="M47.2906 28.0656C46.7016 27.45 46.0922 26.8156 45.8625 26.2578C45.65 25.7469 45.6375 24.9 45.625 24.0797C45.6016 22.5547 45.5766 20.8266 44.375 19.625C43.1734 18.4234 41.4453 18.3984 39.9203 18.375C39.1 18.3625 38.2531 18.35 37.7422 18.1375C37.1859 17.9078 36.55 17.2984 35.9344 16.7094C34.8562 15.6734 33.6313 14.5 32 14.5C30.3687 14.5 29.1453 15.6734 28.0656 16.7094C27.45 17.2984 26.8156 17.9078 26.2578 18.1375C25.75 18.35 24.9 18.3625 24.0797 18.375C22.5547 18.3984 20.8266 18.4234 19.625 19.625C18.4234 20.8266 18.4062 22.5547 18.375 24.0797C18.3625 24.9 18.35 25.7469 18.1375 26.2578C17.9078 26.8141 17.2984 27.45 16.7094 28.0656C15.6734 29.1438 14.5 30.3687 14.5 32C14.5 33.6313 15.6734 34.8547 16.7094 35.9344C17.2984 36.55 17.9078 37.1844 18.1375 37.7422C18.35 38.2531 18.3625 39.1 18.375 39.9203C18.3984 41.4453 18.4234 43.1734 19.625 44.375C20.8266 45.5766 22.5547 45.6016 24.0797 45.625C24.9 45.6375 25.7469 45.65 26.2578 45.8625C26.8141 46.0922 27.45 46.7016 28.0656 47.2906C29.1438 48.3266 30.3687 49.5 32 49.5C33.6313 49.5 34.8547 48.3266 35.9344 47.2906C36.55 46.7016 37.1844 46.0922 37.7422 45.8625C38.2531 45.65 39.1 45.6375 39.9203 45.625C41.4453 45.6016 43.1734 45.5766 44.375 44.375C45.5766 43.1734 45.6016 41.4453 45.625 39.9203C45.6375 39.1 45.65 38.2531 45.8625 37.7422C46.0922 37.1859 46.7016 36.55 47.2906 35.9344C48.3266 34.8562 49.5 33.6313 49.5 32C49.5 30.3687 48.3266 29.1453 47.2906 28.0656ZM39.1344 29.1344L30.3844 37.8844C30.2683 38.0006 30.1304 38.0928 29.9787 38.1557C29.8269 38.2186 29.6643 38.251 29.5 38.251C29.3357 38.251 29.1731 38.2186 29.0213 38.1557C28.8696 38.0928 28.7317 38.0006 28.6156 37.8844L24.8656 34.1344C24.7495 34.0182 24.6574 33.8804 24.5945 33.7286C24.5317 33.5769 24.4993 33.4142 24.4993 33.25C24.4993 33.0858 24.5317 32.9231 24.5945 32.7714C24.6574 32.6196 24.7495 32.4818 24.8656 32.3656C25.1002 32.1311 25.4183 31.9993 25.75 31.9993C25.9142 31.9993 26.0769 32.0317 26.2286 32.0945C26.3804 32.1574 26.5182 32.2495 26.6344 32.3656L29.5 35.2328L37.3656 27.3656C37.4818 27.2495 37.6196 27.1574 37.7714 27.0945C37.9231 27.0317 38.0858 26.9993 38.25 26.9993C38.4142 26.9993 38.5769 27.0317 38.7286 27.0945C38.8804 27.1574 39.0182 27.2495 39.1344 27.3656C39.2505 27.4818 39.3426 27.6196 39.4055 27.7714C39.4683 27.9231 39.5007 28.0858 39.5007 28.25C39.5007 28.4142 39.4683 28.5769 39.4055 28.7286C39.3426 28.8804 39.2505 29.0182 39.1344 29.1344Z" fill="url(#paint1_linear_4803_9070)"/>
<defs>
<radialGradient id="paint0_radial_4803_9070" cx="0" cy="0" r="1" gradientUnits="userSpaceOnUse" gradientTransform="translate(32 32) rotate(-116.202) scale(19.9303 0.55858)">
<stop stop-color="#274962"/>
<stop offset="1" stop-color="#2D485C"/>
</radialGradient>
<linearGradient id="paint1_linear_4803_9070" x1="14.5" y1="32" x2="49.5" y2="32" gradientUnits="userSpaceOnUse">
<stop stop-color="#0094FF"/>
<stop offset="1" stop-color="#A02294"/>
</linearGradient>
</defs>
</svg>
