<svg width="80" height="80" viewBox="0 0 80 80" fill="none" xmlns="http://www.w3.org/2000/svg">
<rect x="0.5" y="0.5" width="79" height="79" rx="11.5" fill="url(#paint0_radial_4929_12229)" fill-opacity="0.06"/>
<rect x="0.5" y="0.5" width="79" height="79" rx="11.5" stroke="url(#paint1_linear_4929_12229)"/>
<path d="M27.6542 36.0507C28.456 36.3179 29.0852 36.9471 29.3525 37.7489C29.6245 38.5649 30.7787 38.5649 31.0507 37.7489C31.318 36.9471 31.9471 36.3179 32.7489 36.0507C33.565 35.7787 33.565 34.6244 32.7489 34.3524C31.9471 34.0852 31.318 33.456 31.0507 32.6542C30.7787 31.8382 29.6245 31.8382 29.3525 32.6542C29.0852 33.456 28.456 34.0852 27.6542 34.3524C26.8382 34.6244 26.8382 35.7787 27.6542 36.0507Z" fill="#0495F8"/>
<path fill-rule="evenodd" clip-rule="evenodd" d="M28.3327 26.666C24.6508 26.666 21.666 29.6508 21.666 33.3327V46.666C21.666 50.3479 24.6508 53.3327 28.3327 53.3327H44.9993C48.1534 53.3327 50.7959 51.1423 51.4887 48.1997L52.9993 49.3327C55.1968 50.9808 58.3327 49.4128 58.3327 46.666V33.3327C58.3327 30.5859 55.1968 29.0179 52.9993 30.666L51.4887 31.799C50.7959 28.8564 48.1534 26.666 44.9993 26.666H28.3327ZM54.9993 46.666L51.666 44.166V35.8327L54.9993 33.3327V46.666ZM24.9993 33.3327C24.9993 31.4917 26.4917 29.9993 28.3327 29.9993H44.9993C46.8403 29.9993 48.3327 31.4917 48.3327 33.3327V46.666C48.3327 48.507 46.8403 49.9993 44.9993 49.9993H28.3327C26.4917 49.9993 24.9993 48.507 24.9993 46.666V33.3327Z" fill="#0495F8"/>
<defs>
<radialGradient id="paint0_radial_4929_12229" cx="0" cy="0" r="1" gradientTransform="matrix(-11 -22.3529 -0.122301 1.33282 40 40)" gradientUnits="userSpaceOnUse">
<stop stop-color="#274962"/>
<stop offset="1" stop-color="#2D485C"/>
</radialGradient>
<linearGradient id="paint1_linear_4929_12229" x1="0" y1="0" x2="80" y2="75" gradientUnits="userSpaceOnUse">
<stop stop-color="#19B1D2"/>
<stop offset="0.639201" stop-color="#0DA3E7" stop-opacity="0"/>
<stop offset="1" stop-color="#0094FF"/>
</linearGradient>
</defs>
</svg>
