<svg width="32" height="32" viewBox="0 0 33 32" fill="none" xmlns="http://www.w3.org/2000/svg">
<path d="M8.62532 11.1266C12.9746 6.9573 20.0253 6.9573 24.3746 11.1266L24.8973 11.628C24.9486 11.6766 24.9894 11.7351 25.0173 11.7999C25.0451 11.8648 25.0595 11.9347 25.0595 12.0053C25.0595 12.0759 25.0451 12.1458 25.0173 12.2107C24.9894 12.2755 24.9486 12.334 24.8973 12.3826L23.1066 14.0986C23.0535 14.1488 22.9831 14.1767 22.91 14.1767C22.8369 14.1767 22.7665 14.1488 22.7133 14.0986L21.9933 13.408C18.9587 10.5013 14.04 10.5013 11.0066 13.408L10.236 14.148C10.1827 14.1985 10.1121 14.2267 10.0386 14.2267C9.96522 14.2267 9.89458 14.1985 9.84132 14.148L8.05198 12.432C8.00074 12.3834 7.95994 12.3249 7.93205 12.26C7.90416 12.1951 7.88978 12.1252 7.88978 12.0546C7.88978 11.984 7.90416 11.9141 7.93205 11.8493C7.95994 11.7844 8.00074 11.7259 8.05198 11.6773L8.62532 11.1266ZM28.0773 14.6746L29.6707 16.2026C29.7219 16.2512 29.7627 16.3097 29.7906 16.3746C29.8185 16.4395 29.8329 16.5094 29.8329 16.58C29.8329 16.6506 29.8185 16.7205 29.7906 16.7853C29.7627 16.8502 29.7219 16.9087 29.6707 16.9573L22.4853 23.844C22.3789 23.9443 22.2382 24.0002 22.092 24.0002C21.9457 24.0002 21.805 23.9443 21.6987 23.844L16.5987 18.956C16.5717 18.9314 16.5365 18.9178 16.5 18.9178C16.4635 18.9178 16.4283 18.9314 16.4013 18.956L11.3027 23.844C11.1963 23.9443 11.0556 24.0002 10.9093 24.0002C10.7631 24.0002 10.6224 23.9443 10.516 23.844L3.32932 16.9573C3.27808 16.9087 3.23727 16.8502 3.20938 16.7853C3.1815 16.7205 3.16711 16.6506 3.16711 16.58C3.16711 16.5094 3.1815 16.4395 3.20938 16.3746C3.23727 16.3097 3.27808 16.2512 3.32932 16.2026L4.92265 14.6746C5.02904 14.5743 5.16975 14.5184 5.31598 14.5184C5.46222 14.5184 5.60292 14.5743 5.70932 14.6746L10.8106 19.5626C10.864 19.616 10.952 19.616 11.0066 19.5626L16.1066 14.6746C16.213 14.5743 16.3537 14.5184 16.5 14.5184C16.6462 14.5184 16.7869 14.5743 16.8933 14.6746L21.9933 19.5626C22.0466 19.616 22.136 19.616 22.1893 19.5626L27.2893 14.6746C27.3957 14.5743 27.5364 14.5184 27.6826 14.5184C27.8289 14.5184 27.9696 14.5743 28.076 14.6746" fill="#3B99FC"/>
</svg>
